<svg id="Layer_1" data-name="Layer 1" xmlns="http://www.w3.org/2000/svg" xmlns:xlink="http://www.w3.org/1999/xlink" width="698.75" height="113.95" viewBox="0 0 698.75 113.95"><defs><style>.cls-1{fill:url(#linear-gradient);}.cls-2{fill:#fff;}.cls-3{fill:#383d63;}</style><linearGradient id="linear-gradient" x1="28.48" y1="106.33" x2="85.47" y2="7.63" gradientUnits="userSpaceOnUse"><stop offset="0" stop-color="#383d63"/><stop offset="0.23" stop-color="#693566"/><stop offset="0.48" stop-color="#982d6a"/><stop offset="0.7" stop-color="#bb276c"/><stop offset="0.88" stop-color="#d0236d"/><stop offset="1" stop-color="#d8226e"/></linearGradient></defs><circle class="cls-1" cx="56.98" cy="56.98" r="56.98"/><circle class="cls-2" cx="56.98" cy="56.98" r="5.72"/><circle class="cls-2" cx="49.76" cy="32.1" r="4.16"/><path class="cls-2" d="M84.34,59.45A4.16,4.16,0,1,0,88.5,63.6,4.16,4.16,0,0,0,84.34,59.45Z"/><path class="cls-2" d="M77.29,46.12c2.65-8.27,2.32-14.79-1.48-17.33C71.58,26,64.44,29,57,36.08c-.59-.56-1.18-1.08-1.76-1.59a5.84,5.84,0,0,1-1.28,1.85c.48.42,1,.85,1.44,1.31A75.84,75.84,0,0,0,50,43.85a70.07,70.07,0,0,0-11.13,1.7c-2.26-7.08-2.19-12.64.75-14.6A5.5,5.5,0,0,1,44,30.44a6,6,0,0,1,1.13-2.14c-2.76-.86-5.17-.75-7,.49-3.8,2.54-4.13,9.06-1.48,17.33C28.31,48.51,23.08,52.4,23.08,57s5.23,8.46,13.58,10.86c-.23.72-.44,1.43-.63,2.12h.33a5.82,5.82,0,0,1,1.92.32c.17-.61.35-1.23.55-1.86A71.28,71.28,0,0,0,50,70.1a75.84,75.84,0,0,0,5.42,6.2c-6.45,6.07-12.51,8.9-15.8,6.71a4.45,4.45,0,0,1-1.34-1.45,5.71,5.71,0,0,1-2.61.26,6.64,6.64,0,0,0,2.51,3.34C42.37,88,49.51,85,57,77.87,64.44,85,71.58,88,75.81,85.16c3.8-2.54,4.13-9.06,1.48-17.33.78-.22,1.53-.45,2.25-.7a6.24,6.24,0,0,1-1-2q-1,.33-2,.63a69.24,69.24,0,0,0-4-8.73,70,70,0,0,0,4-8.74c7.14,2,11.72,5.2,11.72,8.74a4.21,4.21,0,0,1-.42,1.82,6.09,6.09,0,0,1,1.73,2A6.55,6.55,0,0,0,90.87,57C90.87,52.4,85.64,48.51,77.29,46.12ZM57,39.2c1.34,1.37,2.7,2.87,4,4.48-1.32-.06-2.67-.09-4-.09s-2.72,0-4,.09C54.28,42.07,55.63,40.57,57,39.2Zm-8.82,7c-.78,1.07-1.55,2.17-2.31,3.31-1.16,1.72-2.22,3.44-3.2,5.13a65.4,65.4,0,0,1-3.09-7A66.1,66.1,0,0,1,48.16,46.23ZM37.39,65.71c-7.14-2-11.72-5.2-11.72-8.73s4.58-6.69,11.72-8.74a68.7,68.7,0,0,0,4,8.74A68,68,0,0,0,37.39,65.71Zm2.17.57a65.4,65.4,0,0,1,3.09-7c1,1.69,2,3.41,3.2,5.13.76,1.15,1.53,2.25,2.32,3.31A66,66,0,0,1,39.56,66.28Zm8.1-3.08C46.27,61.11,45,59,43.87,57q1.71-3.09,3.79-6.23Q49.34,48.25,51.1,46c1.9-.13,3.87-.2,5.88-.2s4,.07,5.88.2c1.16,1.51,2.31,3.1,3.43,4.77q2.08,3.14,3.79,6.23c-1.14,2.05-2.4,4.13-3.79,6.22C65.17,64.87,64,66.46,62.86,68q-2.86.19-5.88.2c-2,0-4-.07-5.88-.2Q49.35,65.7,47.66,63.2Zm5.28,7.07c1.32.06,2.66.09,4,.09s2.72,0,4-.09c-1.34,1.62-2.7,3.12-4,4.48C55.63,73.39,54.28,71.89,52.94,70.27ZM74.37,83c-3.28,2.19-9.35-.64-15.8-6.71A75.84,75.84,0,0,0,64,70.1a71.28,71.28,0,0,0,11.13-1.69C77.38,75.49,77.31,81,74.37,83Zm0-16.73a65.81,65.81,0,0,1-8.6,1.44c.78-1.06,1.55-2.16,2.32-3.31,1.15-1.72,2.21-3.44,3.19-5.13A65.4,65.4,0,0,1,74.39,66.28ZM71.3,54.67c-1-1.69-2-3.41-3.19-5.13-.77-1.14-1.54-2.24-2.32-3.31a65.81,65.81,0,0,1,8.6,1.44A65.4,65.4,0,0,1,71.3,54.67Zm3.82-9.12A70.07,70.07,0,0,0,64,43.85a75.84,75.84,0,0,0-5.42-6.2c6.45-6.07,12.52-8.9,15.8-6.7C77.31,32.91,77.38,38.47,75.12,45.55Z"/><path class="cls-2" d="M40.52,75.91a4.16,4.16,0,1,0-4.16,4.16A4.16,4.16,0,0,0,40.52,75.91Z"/><path class="cls-3" d="M150.35,72.82a20.64,20.64,0,0,1-8.14-7.66,21.2,21.2,0,0,1-3-11.13,21.15,21.15,0,0,1,3-11.13,20.59,20.59,0,0,1,8.14-7.67,24.5,24.5,0,0,1,11.7-2.76,25.12,25.12,0,0,1,10.24,2,19.62,19.62,0,0,1,7.58,5.8L172.41,47a12.27,12.27,0,0,0-9.77-4.86,12.14,12.14,0,0,0-6,1.48,10.29,10.29,0,0,0-4.09,4.18,13.92,13.92,0,0,0,0,12.37,10.29,10.29,0,0,0,4.09,4.18,12.14,12.14,0,0,0,6,1.48A12.27,12.27,0,0,0,172.41,61l7.46,6.75a19.62,19.62,0,0,1-7.58,5.8,25,25,0,0,1-10.24,2A24.5,24.5,0,0,1,150.35,72.82Z"/><path class="cls-3" d="M215.07,45.68q3.63,3.56,3.64,10.71V74.75H207.46V58.23q0-6.57-5.27-6.57a6,6,0,0,0-4.65,1.89c-1.16,1.27-1.75,3.16-1.75,5.69V74.75H184.55V30.82h11.24v14.8A12.42,12.42,0,0,1,200.12,43a15.73,15.73,0,0,1,5.33-.88A13.19,13.19,0,0,1,215.07,45.68Z"/><path class="cls-3" d="M251.63,45.77q4.2,3.63,4.2,11.16V74.75H245.35V70.6q-2.43,4.68-9.47,4.68a14.83,14.83,0,0,1-6.46-1.3,9.61,9.61,0,0,1-4.11-3.52,9.32,9.32,0,0,1-1.39-5.07,8.21,8.21,0,0,1,3.49-7.07q3.5-2.52,10.78-2.52h6.39q-.3-5.09-6.81-5.09a15.63,15.63,0,0,0-4.67.74,12.51,12.51,0,0,0-4,2l-3.79-7.63a20.9,20.9,0,0,1,6.48-2.76,30.9,30.9,0,0,1,7.67-1Q247.43,42.13,251.63,45.77Zm-9.18,21.46a5.24,5.24,0,0,0,2.13-2.78V61.66h-4.85q-4.92,0-4.92,3.26a2.87,2.87,0,0,0,1.13,2.37,4.84,4.84,0,0,0,3.08.89A6.25,6.25,0,0,0,242.45,67.23Z"/><path class="cls-3" d="M278.12,43.22a17,17,0,0,1,6.31-1.09V52.25a22.84,22.84,0,0,0-2.55-.18,7.8,7.8,0,0,0-5.65,2c-1.36,1.3-2.05,3.29-2.05,6V74.75H262.94V42.66h10.71v3.85A10.54,10.54,0,0,1,278.12,43.22Z"/><path class="cls-3" d="M323.27,42.66V68.89q0,8.94-4.86,13.41t-14,4.47a35.54,35.54,0,0,1-8.88-1.07,21.13,21.13,0,0,1-7.05-3.14l4.09-7.87a14.44,14.44,0,0,0,4.94,2.52,20,20,0,0,0,5.89.91q4.44,0,6.52-2a7.61,7.61,0,0,0,2.07-5.8V69.3q-3.25,3.8-9.53,3.79a16.52,16.52,0,0,1-7.88-1.92,14.67,14.67,0,0,1-5.74-5.45,15.42,15.42,0,0,1-2.13-8.14,15.31,15.31,0,0,1,2.13-8.08,14.6,14.6,0,0,1,5.74-5.45,16.52,16.52,0,0,1,7.88-1.92q6.86,0,10.06,4.44V42.66ZM310.15,62.31a6.63,6.63,0,0,0,0-9.44,7.13,7.13,0,0,0-5-1.8,7.24,7.24,0,0,0-5.06,1.8,6.56,6.56,0,0,0,0,9.44,7.16,7.16,0,0,0,5,1.84A7,7,0,0,0,310.15,62.31Z"/><path class="cls-3" d="M363.11,61.55H339.79a6.5,6.5,0,0,0,2.75,3.81,9.18,9.18,0,0,0,5.12,1.34,11.22,11.22,0,0,0,4-.65,11.87,11.87,0,0,0,3.4-2.14L361,70.07q-4.68,5.22-13.67,5.21a21.85,21.85,0,0,1-9.89-2.13,16.2,16.2,0,0,1-.36-28.89,20.22,20.22,0,0,1,17.76-.15A15.09,15.09,0,0,1,361,49.85a16.87,16.87,0,0,1,2.28,8.91Q363.29,58.88,363.11,61.55ZM341.83,51.6a6.64,6.64,0,0,0-2.22,4h13.14a6.64,6.64,0,0,0-2.22-4,7.13,7.13,0,0,0-8.7,0Z"/><path class="cls-3" d="M402.6,30.82V74.75H391.89v-3.2q-3.13,3.74-9.42,3.73a16,16,0,0,1-8-2,14.76,14.76,0,0,1-5.71-5.83,17.81,17.81,0,0,1-2.1-8.77,17.62,17.62,0,0,1,2.1-8.73,14.54,14.54,0,0,1,5.71-5.77,16.15,16.15,0,0,1,8-2q5.75,0,8.89,3.31V30.82Zm-13,33.48a8,8,0,0,0,1.89-5.66,7.88,7.88,0,0,0-1.86-5.56,6.29,6.29,0,0,0-4.83-2,6.37,6.37,0,0,0-4.85,2,7.77,7.77,0,0,0-1.9,5.56A8,8,0,0,0,380,64.3a6.73,6.73,0,0,0,9.65,0Z"/><path class="cls-3" d="M456.3,35.17a14.44,14.44,0,0,1,6.4,5.33A14.6,14.6,0,0,1,465,48.64a14,14,0,0,1-8.65,13.41,23.64,23.64,0,0,1-9.76,1.86h-7.23V74.75H427.59V33.3h19A23.64,23.64,0,0,1,456.3,35.17Zm-5,17.94a5.55,5.55,0,0,0,1.84-4.47,5.62,5.62,0,0,0-1.84-4.5,8,8,0,0,0-5.44-1.6h-6.52V54.68h6.52A8.21,8.21,0,0,0,451.27,53.11Z"/><path class="cls-3" d="M495.68,45.77q4.2,3.63,4.2,11.16V74.75H489.4V70.6q-2.43,4.68-9.47,4.68a14.76,14.76,0,0,1-6.45-1.3,9.58,9.58,0,0,1-4.12-3.52A9.32,9.32,0,0,1,468,65.39a8.21,8.21,0,0,1,3.49-7.07q3.5-2.52,10.78-2.52h6.39q-.3-5.09-6.81-5.09a15.63,15.63,0,0,0-4.67.74,12.51,12.51,0,0,0-4,2l-3.79-7.63a20.9,20.9,0,0,1,6.48-2.76,30.9,30.9,0,0,1,7.67-1Q491.48,42.13,495.68,45.77ZM486.5,67.23a5.24,5.24,0,0,0,2.13-2.78V61.66h-4.85q-4.92,0-4.92,3.26A2.87,2.87,0,0,0,480,67.29a4.84,4.84,0,0,0,3.08.89A6.25,6.25,0,0,0,486.5,67.23Z"/><path class="cls-3" d="M522.17,43.22a17,17,0,0,1,6.31-1.09V52.25a22.84,22.84,0,0,0-2.55-.18,7.8,7.8,0,0,0-5.65,2c-1.36,1.3-2,3.29-2,6V74.75H507V42.66H517.7v3.85A10.54,10.54,0,0,1,522.17,43.22Z"/><path class="cls-3" d="M556.25,73.45a11.58,11.58,0,0,1-3.47,1.36,19.53,19.53,0,0,1-4.35.47q-6.27,0-9.65-3.08T535.4,63V52.25h-4.67V43.84h4.67V35.49h11.25v8.35H554v8.41h-7.35V62.91a3.78,3.78,0,0,0,.92,2.69,3.22,3.22,0,0,0,2.46,1,6,6,0,0,0,3.43-1Z"/><path class="cls-3" d="M561.22,37.39a5.74,5.74,0,0,1,0-8.53,7.13,7.13,0,0,1,5-1.71,7.42,7.42,0,0,1,5,1.62A5.27,5.27,0,0,1,573.06,33a5.75,5.75,0,0,1-1.89,4.41,8,8,0,0,1-9.95,0Zm-.65,5.27h11.25V74.75H560.57Z"/><path class="cls-3" d="M586,73.15a15.94,15.94,0,0,1-6.55-5.92,16.11,16.11,0,0,1-2.33-8.59A15.56,15.56,0,0,1,586,44.23a21,21,0,0,1,9.53-2.1,18.17,18.17,0,0,1,9.41,2.33A13,13,0,0,1,610.54,51l-8.71,4.44q-2.19-4.32-6.39-4.32a6.73,6.73,0,0,0-5,2,7.55,7.55,0,0,0-2,5.56,7.75,7.75,0,0,0,2,5.66,6.68,6.68,0,0,0,5,2q4.2,0,6.39-4.32l8.71,4.44a13,13,0,0,1-5.63,6.48,18.17,18.17,0,0,1-9.41,2.34A20.78,20.78,0,0,1,586,73.15Z"/><path class="cls-3" d="M614.68,30.82h11.25V74.75H614.68Z"/><path class="cls-3" d="M665.84,61.55H642.51a6.5,6.5,0,0,0,2.75,3.81,9.18,9.18,0,0,0,5.12,1.34,11.22,11.22,0,0,0,4-.65,11.87,11.87,0,0,0,3.4-2.14l5.93,6.16Q659,75.29,650,75.28a21.85,21.85,0,0,1-9.89-2.13,16.2,16.2,0,0,1-.35-28.89,20.22,20.22,0,0,1,17.76-.15,15.12,15.12,0,0,1,6.18,5.74A16.87,16.87,0,0,1,666,58.76C666,58.84,666,59.77,665.84,61.55ZM644.55,51.6a6.74,6.74,0,0,0-2.22,4h13.15a6.7,6.7,0,0,0-2.23-4,7.13,7.13,0,0,0-8.7,0Z"/><path class="cls-3" d="M675,74.36A21.12,21.12,0,0,1,668.68,72l3.37-7.7a18.94,18.94,0,0,0,5.21,2.16,23.48,23.48,0,0,0,6,.8,9.67,9.67,0,0,0,3.88-.56A1.78,1.78,0,0,0,688.28,65c0-.71-.47-1.22-1.4-1.51a28.34,28.34,0,0,0-4.41-.86,43.47,43.47,0,0,1-6.54-1.24,10.12,10.12,0,0,1-4.65-2.85,8.12,8.12,0,0,1-1.95-5.8,8.7,8.7,0,0,1,1.84-5.47,12,12,0,0,1,5.35-3.79A22.92,22.92,0,0,1,685,42.13a33.68,33.68,0,0,1,6.93.71,19.73,19.73,0,0,1,5.74,2l-3.37,7.64A18.75,18.75,0,0,0,685,50.12a9.29,9.29,0,0,0-3.91.62,1.85,1.85,0,0,0-1.24,1.63c0,.75.45,1.27,1.36,1.57a32.8,32.8,0,0,0,4.5.92,48.06,48.06,0,0,1,6.57,1.36A10,10,0,0,1,696.83,59a8,8,0,0,1,1.92,5.71,8.7,8.7,0,0,1-1.83,5.42,11.94,11.94,0,0,1-5.42,3.76,24.23,24.23,0,0,1-8.61,1.36A34.19,34.19,0,0,1,675,74.36Z"/></svg>